<?xml version="1.0" encoding="UTF-8" standalone="no"?>
<svg xmlns:inkscape="http://www.inkscape.org/namespaces/inkscape" xmlns:sodipodi="http://sodipodi.sourceforge.net/DTD/sodipodi-0.dtd" xmlns="http://www.w3.org/2000/svg" xmlns:svg="http://www.w3.org/2000/svg" width="19.999981" height="22" viewBox="0 0 19.999981 22" fill="none" version="1.1" id="svg4" sodipodi:docname="5e268ad819f43616d07c892048b398e3.svg"><metadata><meta name="Producer" content="Img2Go"/></metadata>
  <defs id="defs8"/>
  <sodipodi:namedview id="namedview6" pagecolor="#ffffff" bordercolor="#666666" borderopacity="1.0" inkscape:pageshadow="2" inkscape:pageopacity="0.0" inkscape:pagecheckerboard="0"/>
  <path fill-rule="evenodd" clip-rule="evenodd" d="M 14.5918,5 C 14.5728,4.9193 14.5531,4.83842 14.5325,4.75746 14.2648,3.70138 13.8433,2.55383 13.1559,1.65 12.4472,0.718018 11.4123,0 10,0 8.5877,0 7.5528,0.718018 6.84406,1.65 6.15673,2.55383 5.73518,3.70138 5.46747,4.75747 5.44695,4.83842 5.42722,4.9193 5.40825,5 H 3.78557 C 2.18414,5 0.85696801,6.22455 0.75044201,7.80044 L 0.00687453,18.8004 C -0.11017299,20.532 1.28239,22 3.042,22 h 13.916 c 1.7596,0 3.1522,-1.468 3.0351,-3.1996 L 19.2496,7.80044 C 19.143,6.22455 17.8159,5 16.2144,5 Z M 5.94418,10 C 6.52516,10 6.95616,9.5684 6.95814,8.99817 6.9583,8.97438 6.95858,8.9506 6.95899,8.92682 6.95988,8.87413 6.9617,8.79455 6.96541,8.69194 6.97285,8.48652 6.98784,8.18999 7.018,7.83304 7.03941,7.57976 7.06824,7.29862 7.10693,7 h 5.78617 c 0.0387,0.29862 0.0675,0.57976 0.0889,0.83305 0.0302,0.35694 0.0452,0.65347 0.0526,0.85889 0.0037,0.10261 0.0055,0.18219 0.0064,0.23488 4e-4,0.02452 8e-4,0.04905 9e-4,0.07358 0,0 0,0.9996 1.0139,0.9996 1.014,0 1.014,-1.00134 1.014,-1.00134 C 15.0697,8.9636 15.0692,8.92854 15.0686,8.89349 15.0676,8.829 15.0654,8.7367 15.0612,8.62056 15.0528,8.38848 15.0361,8.06001 15.0029,7.66695 14.9856,7.46202 14.9637,7.23812 14.9359,7 h 1.2785 c 0.5338,0 0.9762,0.40818 1.0117,0.93348 L 17.9697,18.9335 C 18.0087,19.5107 17.5445,20 16.958,20 H 3.042 C 2.45547,20 1.99128,19.5107 2.03029,18.9335 L 2.77386,7.93348 C 2.80937,7.40818 3.25176,7 3.78557,7 H 5.06414 C 5.03633,7.23812 5.01441,7.46202 4.9971,7.66696 4.96389,8.06001 4.9472,8.38848 4.93879,8.62056 4.93459,8.7367 4.93245,8.829 4.93136,8.89349 4.93077,8.92785 4.93033,8.96221 4.93023,8.99658 4.92945,9.56716 5.36453,10 5.94418,10 Z M 7.4991,5 h 5.0018 C 12.2665,4.15322 11.9478,3.39466 11.5336,2.85 11.1017,2.28198 10.6156,2 10,2 9.38438,2 8.89835,2.28198 8.46639,2.85 8.0522,3.39466 7.73353,4.15322 7.4991,5 Z" fill="#151618" id="path2"/>
</svg>
